Coordinates
version=1
nRows=19
nColumns=36
inDegrees=yes

Units are S.I. units (second, meters, Newtons, ...)
If the header above contains a line with 'inDegrees', this indicates whether rotational values are in degrees (yes) or radians (no).

endheader
time	pelvis_tilt	pelvis_list	pelvis_rotation	pelvis_tx	pelvis_ty	pelvis_tz	hip_flexion_r	hip_adduction_r	hip_rotation_r	knee_angle_r	knee_angle_r_beta	ankle_angle_r	subtalar_angle_r	mtp_angle_r	hip_flexion_l	hip_adduction_l	hip_rotation_l	knee_angle_l	knee_angle_l_beta	ankle_angle_l	subtalar_angle_l	mtp_angle_l	lumbar_extension	lumbar_bending	lumbar_rotation	arm_flex_r	arm_add_r	arm_rot_r	elbow_flex_r	pro_sup_r	arm_flex_l	arm_add_l	arm_rot_l	elbow_flex_l	pro_sup_l
     44.86666670	      7.10975129	     -6.89425787	     -5.34067050	      0.70539694	      0.92167401	      0.75040988	      5.41754806	      9.11243874	     -0.08740245	     15.32716623	      0.26750952	      5.94922075	     -8.54993199	     -7.49999987	     -1.72605828	     -7.94629182	     -0.96065083	     63.79860639	      1.11349574	    -10.90058853	    -15.02701907	     -7.49999987	    -12.60753092	      8.93538987	      0.00484307	     -2.99459798	    -11.89842830	     -3.83313312	     20.28910090	     76.92951770	      9.65186188	     -6.49905229	      6.65521873	     23.84125974	     77.09719052
     44.88333330	      7.27179224	     -5.92321346	     -5.08553467	      0.70599932	      0.92470837	      0.75123903	      3.24793081	      8.02801124	     -0.01798761	     14.19257792	      0.24770721	      7.37174580	     -7.93033529	     -7.49999987	      2.41977915	     -6.84674764	     -0.72725608	     65.96306418	      1.15127265	     -6.59664286	    -15.64100068	     -7.49999987	    -12.88289978	      7.87874918	      0.18592189	     -1.65442089	    -11.67739682	     -3.53357766	     20.33392763	     77.05200322	      9.14234380	     -6.81766149	      7.51747304	     22.32121165	     77.25522903
     44.90000000	      6.97837966	     -4.99745140	     -5.13507260	      0.70512117	      0.93073979	      0.75289334	      1.46421305	      7.06482475	      0.38307777	     12.82762474	      0.22388429	      8.39940640	     -7.76825787	     -7.49999987	      6.51068162	     -5.81574686	     -0.93344265	     66.58494299	      1.16212649	     -3.98467380	    -16.77877688	     -7.49999987	    -12.73214768	      6.89920034	      0.89445367	     -0.97660952	    -11.69696932	     -3.50281744	     21.61585426	     76.61479441	      7.97971602	     -7.04854203	      7.64621219	     22.71386066	     76.80658031
     44.91666670	      7.19351097	     -4.17298651	     -5.25305661	      0.70184371	      0.93773714	      0.75514936	     -0.92099813	      6.11399150	      0.18781959	     11.20200494	      0.19551187	      9.36527871	     -6.07895065	     -7.49999987	      9.33188941	     -5.08135714	     -1.65317956	     65.69676252	      1.14662481	     -0.53939368	    -15.11606061	     -7.49999987	    -12.78150159	      5.88055000	      1.25796767	      1.24880213	    -11.76350459	     -2.01886073	     20.31642356	     77.54953548	      8.06107860	     -7.24670067	      9.60661724	     19.26874612	     77.52600979
     44.93333330	      7.12829154	     -3.43887151	     -5.43074413	      0.69654504	      0.94292945	      0.75719082	     -2.92402985	      5.35987521	      0.59978787	      9.54942717	      0.16666895	      9.72540877	     -5.56253651	     -7.49999987	     11.81665129	     -4.46503641	     -2.48295257	     63.46700964	      1.10770828	      1.37085894	    -14.19881680	     -7.49999987	    -12.89007291	      5.03560592	      1.80155982	      2.91941389	    -11.98527383	     -1.48833277	     21.58720411	     77.65794681	      7.15133804	     -7.57048242	     10.04116073	     18.65710979	     77.52922398
     44.95000000	      7.06820954	     -2.75024766	     -5.59487361	      0.68966487	      0.94714320	      0.75912161	     -4.73152008	      4.66197414	      1.02300808	      8.17430817	      0.14266859	     10.06812973	     -5.02213076	     -7.49999987	     13.79586449	     -3.90815446	     -3.35957471	     60.24537752	      1.05148020	      2.75036611	    -13.35462177	     -7.49999987	    -13.07755636	      4.19198927	      2.54079051	      4.72883736	    -12.30992919	     -0.91936877	     23.25525030	     77.19678779	      6.27086653	     -7.91254248	     10.25988967	     18.45337889	     76.91875782
     44.96666670	      6.94066712	     -2.18187010	     -5.67744831	      0.68187435	      0.94962664	      0.76109470	     -6.25255843	      4.10500738	      1.14415827	      7.12066598	      0.12427907	     10.32640457	     -4.36242807	     -7.49999987	     15.54025843	     -3.48159965	     -4.19673420	     56.34448192	      0.98339672	      3.89545631	    -12.55983194	     -7.49999987	    -13.21291609	      3.45603332	      3.45648609	      6.80170044	    -12.98271760	      1.41457596	     24.75547605	     77.12214111	      5.81932169	     -8.25844002	     11.05146593	     17.81363895	     76.57925644
     44.98333330	      6.88017781	     -1.65710683	     -5.67730893	      0.67347518	      0.94977591	      0.76266349	     -7.66962159	      3.61355013	      1.18138445	      6.23394457	      0.10880286	     10.38726492	     -4.08108836	     -7.49999987	     17.03901451	     -3.03097692	     -4.90639646	     51.85120076	      0.90497417	      4.66816811	    -11.96276190	     -7.49999987	    -13.67825691	      2.79295815	      4.25430254	      9.03884996	    -13.44352098	      1.86012622	     26.62066428	     76.48336408	      5.31006463	     -8.67186921	     11.04176447	     17.96014389	     75.89532282
     45.00000000	      6.54001960	     -1.22464061	     -5.81870850	      0.66587006	      0.94738705	      0.76390625	     -8.63840565	      3.24857094	      1.28233261	      5.44172737	      0.09497606	     10.43113727	     -3.94812708	     -7.49999987	     18.74604041	     -2.73782072	     -5.63838910	     47.05444147	      0.82125493	      5.12166727	    -11.32422631	     -7.49999987	    -13.87028050	      2.21726898	      5.22239272	     11.15015927	    -13.99251365	      2.49418705	     28.50171766	     76.09005517	      4.93035924	     -8.96886053	     10.97559238	     17.84173329	     75.40446640
     45.01666670	      6.24292384	     -0.89548407	     -5.96269698	      0.66177991	      0.94293943	      0.76478567	     -9.59909159	      2.94775231	      1.24377168	      4.70510511	      0.08211958	     10.83251073	     -3.62350775	     -7.49999987	     20.28573584	     -2.53125412	     -6.08600509	     42.18504951	      0.73626801	      5.29470359	    -10.59879595	     -7.49999987	    -14.07702743	      1.84213400	      6.14687894	     13.16553887	    -14.82290704	      3.29896099	     30.40234257	     75.69507178	      4.69059490	     -9.17139279	     10.78543665	     17.22575236	     74.90309365
     45.03333330	      5.65850492	     -0.66357999	     -6.16566271	      0.66304035	      0.93514979	      0.76466287	    -10.29632624	      2.74505243	      1.28319109	      4.04779845	      0.07064741	     11.51054084	     -3.28622142	     -7.49999987	     21.94050928	     -2.51450788	     -6.22648315	     37.48584126	      0.65425135	      5.24573224	     -9.89782942	     -7.49999987	    -13.64591783	      1.57831033	      6.90498633	     15.02744389	    -15.40046045	      3.61006703	     31.93458066	     75.86292727	      4.12519521	     -9.41070171	     10.65831609	     16.38403988	     75.05099756
     45.05000000	      5.60611896	     -0.52919020	     -6.31530412	      0.66634189	      0.92561932	      0.76160856	    -11.72154101	      2.50389655	      1.10627845	      3.42459163	      0.05977040	     12.61376105	     -2.27208686	     -7.49999987	     22.72386646	     -2.49228845	     -6.03277220	     32.87905506	      0.57384777	      5.35322840	     -9.15252773	     -7.49999987	    -13.75596176	      1.52098766	      7.52839460	     16.51129820	    -16.38440578	      4.10070363	     34.43596138	     76.23311076	      3.61672851	     -9.47827602	     10.08668664	     15.57068085	     75.42845594
     45.06666670	      5.33393067	     -0.36925198	     -6.45820808	      0.66761172	      0.91666483	      0.75705779	    -12.97777089	      2.20976194	      1.15798865	      2.98345742	      0.05207115	     13.72235930	     -1.59976167	     -7.49999987	     23.46874620	     -2.40314007	     -5.61107130	     28.24727799	      0.49300801	      5.76464548	     -8.31684408	     -7.49999987	    -13.45305934	      1.50027619	      7.83468612	     17.96857646	    -16.92191922	      3.86199464	     36.50578781	     76.53206046	      2.75775417	     -9.38032898	      9.44196723	     15.12920080	     75.88803480
     45.08333330	      5.09564982	     -0.19156794	     -6.49561966	      0.66550563	      0.91163542	      0.75351636	    -14.36040612	      1.88460880	      1.38331855	      2.61750003	      0.04568399	     14.64676709	     -1.19534961	     -7.49999987	     23.95312745	     -2.16396107	     -4.87083495	     23.49765691	      0.41011148	      6.61457461	     -7.17977260	     -7.49999987	    -13.19349068	      1.49053392	      7.84162852	     19.38990251	    -17.39321702	      3.56303644	     38.34579252	     76.43922791	      1.92957125	     -9.27916551	      8.87054511	     14.83519371	     75.78436405
     45.10000000	      4.92801623	      0.08327257	     -6.43648454	      0.66275556	      0.90960918	      0.75165901	    -15.80563065	      1.46092733	      1.32629294	      2.36300781	      0.04124227	     15.59545296	     -0.49731427	     -7.49999987	     24.15393744	     -1.73639979	     -3.93700340	     18.82117365	      0.32849145	      7.58383010	     -5.89065406	     -7.49999987	    -13.04169548	      1.31005842	      7.61530119	     20.65705187	    -17.77186349	      3.49477939	     39.93813877	     76.45769338	      1.26738403	     -9.16132958	      8.38720244	     14.57021777	     75.65697511
     45.11666670	      4.78991274	      0.42115838	     -6.27726398	      0.66235851	      0.90691215	      0.75024093	    -17.18711062	      0.99099502	      1.09156901	      2.25393616	      0.03933861	     16.60629931	      0.20109615	     -7.49999987	     24.27628074	     -1.21144445	     -2.97508886	     14.95237489	      0.26096817	      8.54304697	     -4.63491682	     -7.49999987	    -12.84409264	      1.00506975	      7.25148554	     21.63210831	    -18.10919546	      3.53384094	     41.10055465	     77.18164462	      0.78261855	     -9.02822405	      7.84580220	     14.08189636	     76.14428354
     45.13333330	      4.72411057	      0.82003981	     -6.22565120	      0.66353745	      0.90198219	      0.74881858	    -18.44070889	      0.45975850	      1.68432962	      2.34858980	      0.04099062	     17.21662523	     -0.59068547	     -7.49999987	     24.34137269	     -0.62557850	     -1.89070295	     12.27955329	      0.21431864	      8.98041645	     -4.29447230	     -7.49999987	    -12.73237579	      0.50260953	      6.91389754	     22.29910569	    -18.27120832	      3.25701862	     42.17138782	     76.45823655	      0.08606159	     -9.07679827	      7.61518935	     14.25476379	     75.34578736
     45.15000000	      4.80929373	      1.30872189	     -5.97505671	      0.66402528	      0.89725408	      0.74680782	    -19.71712287	     -0.15351977	      1.02751393	      2.67836857	      0.04674635	     18.55448779	      0.28761553	     -7.49999987	     24.44888210	      0.16909180	     -0.97346738	     11.31869529	      0.19754850	      9.48432233	     -3.92835541	     -7.49999987	    -12.68272012	     -0.08730110	      6.03872257	     22.82663257	    -17.91889301	      1.88835792	     43.28750926	     83.68788620	     -0.33347867	     -8.80444058	      4.08154425	     13.03247672	     82.26288482
     45.16666670	      4.99819401	      1.79188475	     -5.84355624	      0.66325189	      0.89616069	      0.74453104	    -20.93507709	     -0.82296551	      0.96205142	      3.31606752	      0.05787630	     19.53961043	      0.29480172	     -7.49999987	     24.43472223	      1.03086210	     -0.07825853	     11.72749955	      0.20468348	      9.20430064	     -4.40557210	     -7.49999987	    -12.72858670	     -0.74849201	      5.37141782	     23.12733733	    -17.88259229	      1.95563024	     44.18204703	     82.17044084	     -0.74041459	     -8.79294199	      4.05609165	     12.11143206	     80.68738950
